<svg width="561" height="460" viewBox="0 0 561 460" fill="none" xmlns="http://www.w3.org/2000/svg">
<mask id="mask0_1909_258" style="mask-type:luminance" maskUnits="userSpaceOnUse" x="265" y="414" width="37" height="37">
<path d="M301.959 414.195H265.959V450.195H301.959V414.195Z" fill="white"/>
</mask>
<g mask="url(#mask0_1909_258)">
<path d="M283.959 419.73L301.559 414.544L296.419 432.195L301.559 449.796L283.959 444.66L266.299 449.796L271.489 432.195L266.299 414.544L283.959 419.73Z" fill="black" stroke="white" stroke-miterlimit="10"/>
</g>
<mask id="mask1_1909_258" style="mask-type:luminance" maskUnits="userSpaceOnUse" x="30" y="300" width="101" height="100">
<path d="M130.413 349.923L80.6849 300.195L30.957 349.923L80.6849 399.651L130.413 349.923Z" fill="white"/>
</mask>
<g mask="url(#mask1_1909_258)">
<path d="M97.903 332.704L129.379 349.854L97.903 367.142L80.6849 398.549L63.4659 367.142L31.9899 349.854L63.4659 332.704L80.6849 301.159L97.903 332.704Z" fill="black" stroke="white" stroke-miterlimit="10"/>
</g>
<path d="M318.539 188.382C386.979 226.132 445.719 266.13 485.349 300.272C505.169 317.346 520.189 332.937 529.259 346.037C533.799 352.588 536.829 358.492 538.249 363.628C539.659 368.763 539.439 373.085 537.539 376.528C535.639 379.972 532.099 382.463 526.999 384.008C521.909 385.554 515.289 386.138 507.329 385.795C491.409 385.108 470.209 380.719 445.199 373.063C395.179 357.753 330.009 329.411 261.579 291.66C193.135 253.91 134.401 213.912 94.768 179.77C74.949 162.696 59.927 147.105 50.853 134.005C46.316 127.454 43.283 121.55 41.871 116.413C40.46 111.279 40.6789 106.958 42.5789 103.514C44.4779 100.07 48.0169 97.5793 53.1119 96.0343C58.2099 94.4883 64.8219 93.9043 72.7839 94.2473C88.7039 94.9343 109.905 99.3233 134.919 106.979C184.939 122.289 250.099 150.631 318.539 188.382Z" stroke="black"/>
<path d="M298.309 225.056C366.749 262.806 425.479 302.804 465.119 336.946C484.939 354.02 499.959 369.611 509.029 382.711C513.569 389.261 516.599 395.166 518.009 400.302C519.429 405.436 519.209 409.758 517.309 413.202C515.409 416.646 511.869 419.137 506.769 420.682C501.679 422.228 495.059 422.812 487.099 422.469C471.179 421.782 449.979 417.393 424.969 409.737C374.949 394.427 309.779 366.085 241.339 328.334C172.904 290.584 114.17 250.586 74.5379 216.444C54.7189 199.37 39.6969 183.779 30.6229 170.679C26.0859 164.128 23.0519 158.224 21.6399 153.087C20.2289 147.953 20.4489 143.632 22.3479 140.188C24.2479 136.744 27.7859 134.252 32.8819 132.707C37.9789 131.161 44.5919 130.578 52.5529 130.921C68.4739 131.608 89.6749 135.997 114.689 143.653C164.709 158.963 229.872 187.305 298.309 225.056Z" stroke="black"/>
<path d="M278.079 261.73C346.519 299.48 405.259 339.478 444.889 373.62C464.709 390.694 479.729 406.285 488.799 419.385C493.339 425.936 496.369 431.84 497.789 436.977C499.199 442.111 498.979 446.433 497.079 449.877C495.179 453.32 491.639 455.811 486.539 457.356C481.449 458.902 474.839 459.487 466.869 459.143C450.949 458.456 429.749 454.067 404.739 446.411C354.719 431.101 289.559 402.759 221.115 365.009C152.676 327.258 93.9419 287.26 54.3089 253.118C34.4899 236.044 19.4679 220.453 10.3949 207.353C5.85694 200.803 2.82391 194.898 1.41191 189.761C0.000910044 184.628 0.219918 180.306 2.11992 176.862C4.01892 173.418 7.55794 170.927 12.6529 169.382C17.7509 167.836 24.3629 167.252 32.3249 167.595C48.2449 168.282 69.4459 172.671 94.4599 180.327C144.48 195.637 209.643 223.979 278.079 261.73Z" stroke="black"/>
<path d="M104.456 107.195C113.016 107.195 119.956 100.256 119.956 91.6953C119.956 83.1349 113.016 76.1953 104.456 76.1953C95.8955 76.1953 88.9559 83.1349 88.9559 91.6953C88.9559 100.256 95.8955 107.195 104.456 107.195Z" fill="#B9FF66"/>
<path d="M393.959 432.195C399.482 432.195 403.959 427.718 403.959 422.195C403.959 416.672 399.482 412.195 393.959 412.195C388.436 412.195 383.959 416.672 383.959 422.195C383.959 427.718 388.436 432.195 393.959 432.195Z" fill="#B9FF66"/>
<path d="M54.4559 75.1953C67.4346 75.1953 77.9559 64.674 77.9559 51.6953C77.9559 38.7166 67.4346 28.1953 54.4559 28.1953C41.4772 28.1953 30.9559 38.7166 30.9559 51.6953C30.9559 64.674 41.4772 75.1953 54.4559 75.1953Z" fill="black"/>
<path d="M278.929 370.785C272.629 372.939 265.419 368.67 262.909 361.266L223.915 247.005L246.699 239.21L285.739 353.628C288.249 360.953 285.189 368.631 278.929 370.785Z" fill="black"/>
<path d="M275.519 372.195C273.679 372.195 271.799 371.764 269.999 370.863C266.359 369.061 263.459 365.693 262.049 361.54L223.053 247.279C222.897 246.848 223.132 246.339 223.601 246.182L246.389 238.387C246.629 238.308 246.859 238.308 247.059 238.426C247.249 238.543 247.409 238.7 247.489 238.935L286.519 353.354C289.149 361.109 285.859 369.296 279.159 371.607C278.029 371.999 276.779 372.195 275.519 372.195ZM225.011 247.553L263.739 360.992C264.989 364.713 267.569 367.769 270.779 369.335C273.369 370.589 276.149 370.824 278.649 369.962C284.449 367.964 287.269 360.757 284.919 353.902L246.159 240.306L225.011 247.553Z" fill="black"/>
<path d="M242.669 140.577L168.94 193.183L140.24 222.993L128.963 242.931L128.924 243.087C126.692 246.534 127.984 254.486 132.174 262.594C136.285 270.585 142.08 276.148 146.152 276.461L146.035 276.539L167.687 278.89L208.213 272.426L294.239 241.638L401.169 259.97L401.919 260.009C375.049 254.995 338.799 219.075 312.449 168.271C286.129 117.505 277.749 67.3273 289.299 42.5713H289.269L243.259 139.323L242.669 140.577Z" fill="#B9FF66"/>
<path d="M419.689 257.798C446.109 244.068 440.999 181.824 408.269 118.772C375.539 55.72 327.579 15.7365 301.159 29.4664C274.729 43.1963 279.839 105.44 312.569 168.492C345.299 231.544 393.259 271.528 419.689 257.798Z" fill="white"/>
<path d="M408.059 261.38C396.549 261.38 382.689 254.956 367.769 242.461C347.449 225.461 327.519 199.255 311.659 168.623C287.659 122.245 277.749 74.6917 286.449 47.4679C289.339 38.3802 294.199 32.0345 300.819 28.6266C313.969 21.8892 332.489 27.6082 353.009 44.7651C373.329 61.7653 393.259 87.9703 409.119 118.602C433.159 164.981 443.069 212.534 434.339 239.758C431.439 248.846 426.579 255.191 419.969 258.599C416.399 260.479 412.409 261.38 408.059 261.38ZM312.799 27.6082C308.769 27.6082 305.009 28.4308 301.639 30.1935C295.409 33.3663 290.869 39.3986 288.129 48.0554C279.559 74.8875 289.419 121.932 313.229 167.918C345.649 230.474 393.179 270.507 419.219 257.15C425.449 253.977 429.989 247.945 432.729 239.288C441.309 212.456 431.439 165.411 407.629 119.425C379.399 64.9773 339.779 27.6082 312.799 27.6082Z" fill="black"/>
<path d="M408.059 261.38C396.549 261.38 382.689 254.956 367.769 242.461C347.449 225.46 327.519 199.255 311.659 168.623C287.659 122.245 277.749 74.6916 286.449 47.4678C289.339 38.3801 294.199 32.0344 300.819 28.6265C309.629 24.0827 321.139 25.2187 334.099 31.8777C346.509 38.2626 359.939 49.583 373.019 64.5855C373.329 64.938 373.289 65.4864 372.939 65.7998C372.589 66.1132 372.039 66.074 371.729 65.7215C345.179 35.2464 318.319 21.6149 301.639 30.1934C295.409 33.3662 290.869 39.3986 288.129 48.0553C279.559 74.8875 289.419 121.932 313.229 167.918C341.419 222.327 381.089 259.735 408.019 259.735C412.059 259.735 415.819 258.912 419.179 257.15C425.409 253.977 429.949 247.945 432.689 239.288C441.269 212.456 431.399 165.411 407.589 119.425C400.509 105.715 392.519 92.8273 383.939 81.1157C383.669 80.7239 383.749 80.1756 384.139 79.9014C384.529 79.6272 385.079 79.7055 385.349 80.0972C394.009 91.8873 401.989 104.853 409.159 118.641C433.159 164.98 443.069 212.534 434.339 239.758C431.439 248.845 426.579 255.191 419.969 258.599C416.399 260.479 412.409 261.38 408.059 261.38Z" fill="black"/>
<path d="M359.719 177.534C365.849 174.353 364.669 159.946 357.089 145.354C349.519 130.762 338.409 121.511 332.289 124.692C326.169 127.873 327.349 142.28 334.919 156.872C342.499 171.464 353.599 180.715 359.719 177.534Z" fill="#B9FF66"/>
<path d="M357.039 179.043C350.309 179.043 340.909 170.347 334.139 157.225C328.499 146.335 326.189 135.132 328.259 128.669C329.009 126.397 330.219 124.791 331.909 123.929C338.559 120.521 349.959 129.805 357.869 145.042C363.499 155.932 365.809 167.135 363.739 173.598C362.999 175.87 361.779 177.476 360.099 178.338C359.159 178.808 358.139 179.043 357.039 179.043ZM334.959 124.909C334.139 124.909 333.359 125.065 332.689 125.418C331.399 126.084 330.459 127.337 329.869 129.178C327.949 135.211 330.179 145.943 335.629 156.441C342.829 170.347 353.679 179.709 359.279 176.81C360.569 176.144 361.509 174.891 362.099 173.05C364.009 166.978 361.739 156.285 356.339 145.787C349.999 133.605 340.909 124.909 334.959 124.909Z" fill="#B9FF66"/>
<path d="M402.109 246.769C392.009 246.769 379.869 241.129 366.789 230.2C349.019 215.315 331.549 192.361 317.689 165.568C296.669 124.987 288.009 83.3483 295.609 59.4931C298.149 51.5023 302.419 45.94 308.259 42.9238C321.649 36.0689 341.339 43.9814 362.329 64.6245C362.679 64.9771 362.679 65.4863 362.329 65.8388C361.979 66.1914 361.469 66.1914 361.119 65.8388C340.679 45.7441 321.689 37.9099 309.039 44.4515C303.639 47.2326 299.679 52.4424 297.249 60.0024C289.779 83.4266 298.389 124.556 319.219 164.784C343.849 212.377 378.499 245.046 402.069 245.046C405.599 245.046 408.849 244.302 411.819 242.813C417.229 240.032 421.179 234.822 423.609 227.262C431.089 203.838 422.469 162.708 401.639 122.48C395.339 110.337 388.289 98.9383 380.689 88.6363C380.419 88.2443 380.499 87.6963 380.889 87.4223C381.279 87.1479 381.829 87.2263 382.099 87.6183C389.779 98.0373 396.859 109.475 403.209 121.696C424.229 162.277 432.889 203.916 425.289 227.771C422.749 235.762 418.479 241.325 412.639 244.341C409.429 245.947 405.909 246.769 402.109 246.769Z" fill="black"/>
<path d="M167.727 279.712C167.688 279.712 167.649 279.712 167.649 279.712L145.996 277.362C145.879 277.362 145.761 277.323 145.644 277.245C141.18 276.539 135.542 270.899 131.43 262.986C127.045 254.643 125.753 246.495 128.141 242.657L128.181 242.539L139.457 222.562C139.496 222.484 139.536 222.444 139.575 222.405L168.276 192.596C168.315 192.557 168.354 192.518 168.393 192.479L241.929 139.989L288.439 42.1798C288.559 41.9839 288.719 41.8273 288.949 41.7489C289.189 41.6706 289.419 41.6706 289.619 41.7881C290.049 41.9839 290.249 42.4932 290.049 42.9241C278.259 68.1893 287.579 118.406 313.189 167.84C338.839 217.352 374.589 254.016 402.109 259.069C402.539 259.148 402.859 259.539 402.819 260.009C402.779 260.44 402.389 260.754 401.959 260.793L401.209 260.754C401.169 260.754 401.129 260.754 401.089 260.754L294.359 242.461L208.527 273.171C208.488 273.171 208.41 273.21 208.37 273.21L167.845 279.673C167.806 279.712 167.767 279.712 167.727 279.712ZM146.623 275.717L167.727 277.989L208.057 271.526L294.039 240.776C294.199 240.737 294.319 240.698 294.469 240.737L390.559 257.189C364.599 245.79 334.259 212.142 311.739 168.663C289.379 125.496 279.399 81.6642 284.879 53.9703L243.449 140.93C243.379 141.047 243.299 141.165 243.179 141.243L169.529 193.85L140.945 223.502L129.668 243.479C129.668 243.518 129.629 243.558 129.629 243.558C127.593 246.73 128.964 254.565 132.918 262.203C136.795 269.685 142.394 275.325 146.231 275.599C146.388 275.599 146.505 275.639 146.623 275.717Z" fill="black"/>
<path d="M242.789 140.264L289.259 42.5322H289.299C277.749 67.2883 286.169 117.466 312.439 168.232C338.799 219.076 375.049 254.995 401.989 259.931L401.249 259.892L294.469 241.599L292.009 241.168C279.589 238.974 263.029 222.836 251.169 199.803C238.989 176.183 236.839 152.642 242.239 141.439L242.789 140.264Z" fill="white"/>
<path d="M401.989 260.793L401.209 260.753C401.169 260.753 401.129 260.753 401.089 260.753L294.319 242.461L291.849 242.03C278.729 239.719 262.089 222.914 250.379 200.234C237.109 174.46 236.439 151.506 241.459 141.086L242.039 139.911L288.519 42.2189C288.639 42.023 288.799 41.8663 289.029 41.788C289.259 41.7096 289.499 41.7096 289.699 41.8272C290.129 42.023 290.319 42.5322 290.129 42.9631C278.339 68.2284 287.659 118.445 313.269 167.879C338.909 217.391 374.659 254.055 402.189 259.108C402.619 259.187 402.929 259.578 402.889 260.048C402.779 260.44 402.419 260.793 401.989 260.793ZM284.799 53.9702L243.569 140.655L242.979 141.83C238.009 152.172 239.459 175.282 251.909 199.412C263.379 221.661 279.549 238.113 292.159 240.306L294.629 240.737L390.519 257.189C364.559 245.79 334.219 212.142 311.699 168.662C289.339 125.496 279.359 81.664 284.799 53.9702Z" fill="black"/>
<path d="M166.552 279.595C166.513 279.595 166.474 279.595 166.474 279.595L145.957 277.401C145.839 277.401 145.722 277.362 145.604 277.284C141.14 276.579 135.502 270.938 131.391 263.026C127.045 254.643 125.752 246.495 128.141 242.657L128.18 242.539L139.457 222.562C139.692 222.131 140.201 222.014 140.631 222.249C141.062 222.484 141.18 222.993 140.945 223.424L129.668 243.479C129.668 243.518 129.629 243.558 129.629 243.558C127.593 246.73 128.963 254.565 132.918 262.203C136.794 269.685 142.393 275.325 146.231 275.599C146.348 275.599 146.505 275.639 146.583 275.717L166.631 277.871C167.1 277.911 167.453 278.341 167.374 278.811C167.335 279.242 166.983 279.595 166.552 279.595Z" fill="black"/>
<path d="M167.922 278.733C161.266 278.263 151.947 268.823 145.173 255.779C138.008 241.951 136.324 227.654 140.709 222.562L129.002 242.931L128.924 243.087C126.692 246.534 127.984 254.486 132.174 262.594C136.285 270.585 142.08 276.148 146.152 276.461L146.035 276.539L167.922 278.733Z" fill="white"/>
<path d="M167.923 279.595C167.883 279.595 167.883 279.595 167.844 279.595C167.688 279.595 167.492 279.555 167.335 279.555L145.957 277.401C145.839 277.401 145.722 277.362 145.604 277.283C141.14 276.578 135.502 270.938 131.391 263.025C127.045 254.643 125.752 246.495 128.141 242.656L128.18 242.539L138.478 224.599C138.869 223.58 139.378 222.679 140.005 221.935C140.279 221.582 140.788 221.543 141.14 221.778C141.493 222.052 141.61 222.522 141.375 222.914L139.927 225.382C137.616 231.61 139.887 243.831 145.839 255.269C152.3 267.765 161.11 276.892 167.414 277.714L167.883 277.754C168.353 277.793 168.706 278.224 168.667 278.694C168.706 279.242 168.353 279.595 167.923 279.595ZM146.583 275.717L161.54 277.244C155.785 273.562 149.441 265.963 144.39 256.17C139.496 246.73 137.068 236.937 137.46 229.887L129.668 243.479C129.668 243.518 129.629 243.557 129.629 243.557C127.593 246.73 128.963 254.564 132.918 262.203C136.794 269.684 142.393 275.325 146.231 275.599C146.348 275.599 146.505 275.638 146.583 275.717Z" fill="black"/>
<path d="M206.764 272.583L208.487 272.23C199.168 274.189 184.445 260.087 174.069 240.071C163.458 219.624 161.461 199.216 168.979 193.183L168 194.163L140.787 222.444C136.324 227.458 137.968 241.834 145.173 255.739C152.103 269.136 161.931 278.694 168.627 278.654L206.764 272.583Z" fill="black"/>
<path d="M168.588 279.555C161.462 279.555 151.556 269.959 144.39 256.17C137.108 242.069 135.267 227.341 140.123 221.896L166.826 194.163C167.296 193.536 167.844 192.988 168.432 192.518C168.784 192.243 169.293 192.283 169.606 192.596C169.92 192.948 169.92 193.458 169.606 193.771L168.079 195.377C162.637 202.663 165.339 221.308 174.853 239.679C185.112 259.5 199.443 273.092 208.214 271.447L208.331 271.408C208.801 271.33 209.232 271.604 209.349 272.074C209.427 272.544 209.153 272.975 208.683 273.092C208.644 273.092 208.605 273.092 208.566 273.131L206.961 273.445H206.921L168.784 279.516C168.706 279.516 168.628 279.555 168.588 279.555ZM164.555 199.02L141.415 223.071C137.108 227.928 139.065 242.108 145.957 255.387C152.691 268.392 162.206 277.793 168.588 277.832L202.262 272.465C193.178 269.253 181.98 257.15 173.326 240.502C165.104 224.638 161.932 208.499 164.555 199.02Z" fill="black"/>
<path d="M332.299 124.674C326.149 127.807 327.049 142.34 334.879 156.833C347.999 181.08 358.449 178.22 359.669 177.789C359.709 177.789 359.709 177.829 359.669 177.829L337.149 195.965C330.539 186.681 324.229 176.34 318.439 165.176C312.919 154.483 308.259 143.828 304.579 133.487L332.299 124.674Z" fill="black"/>
<path d="M337.149 196.826C337.109 196.826 337.069 196.826 337.039 196.826C336.799 196.787 336.609 196.67 336.449 196.474C329.669 186.955 323.369 176.536 317.689 165.607C312.249 155.109 307.549 144.416 303.789 133.84C303.709 133.605 303.709 133.369 303.829 133.174C303.949 132.978 304.109 132.821 304.339 132.743L332.059 123.929C332.489 123.812 332.959 124.008 333.119 124.438C333.279 124.869 333.119 125.339 332.729 125.535C331.399 126.201 330.419 127.533 329.829 129.492C327.909 135.641 330.259 146.531 335.699 156.52C348.509 180.179 358.379 177.476 359.429 177.084C359.819 176.928 360.289 177.123 360.489 177.476C360.689 177.829 360.609 178.338 360.289 178.612L337.699 196.631C337.539 196.748 337.349 196.826 337.149 196.826ZM305.709 134.035C309.429 144.259 313.969 154.6 319.219 164.785C324.699 175.361 330.809 185.428 337.349 194.711L356.889 178.965C352.419 178.769 344.009 175.439 334.139 157.225C328.419 146.688 326.069 135.563 328.149 128.865C328.419 128.003 328.729 127.259 329.129 126.554L305.709 134.035Z" fill="black"/>
<path d="M448.139 68.7927C466.039 59.389 472.969 37.3112 463.609 19.4805C454.249 1.64983 432.149 -5.18156 414.249 4.22213C396.349 13.6258 389.429 35.7036 398.789 53.5343C408.139 71.365 430.239 78.1964 448.139 68.7927Z" fill="black"/>
<path d="M414.519 28.4305C416.249 26.0802 418.789 24.6309 421.689 24.3176C423.879 24.0825 425.919 24.5526 427.839 25.7277C428.819 26.3153 429.679 27.0595 430.499 27.9605C431.089 26.9028 431.789 25.9627 432.609 25.1793C434.219 23.6125 436.139 22.7115 438.289 22.4765C441.189 22.1631 444.009 23.0249 446.199 24.9443C448.349 26.8245 449.719 29.5665 450.079 32.661C450.429 35.8338 449.569 38.8892 447.379 42.2579C445.419 45.274 442.439 48.4077 438.999 52.0898C437.819 53.3432 436.489 54.7534 435.119 56.2419C434.769 56.6336 434.259 56.9078 433.709 56.947C433.159 57.0253 432.649 56.8686 432.179 56.5553C430.499 55.3801 428.889 54.2834 427.479 53.3432C423.329 50.5229 419.729 48.0943 417.149 45.5874C414.249 42.8063 412.759 39.9859 412.409 36.8131C412.099 33.7186 412.839 30.7416 414.519 28.4305Z" fill="white"/>
<path d="M549.689 70.7878C562.799 57.6782 562.799 36.4234 549.689 23.3138C536.589 10.2042 515.339 10.2042 502.239 23.3138C489.129 36.4233 489.129 57.6782 502.239 70.7878C515.339 83.8974 536.589 83.8974 549.689 70.7878Z" fill="#B9FF66"/>
<path d="M525.959 81.4685C507.009 81.4685 491.539 66.0352 491.539 47.0372C491.539 28.0785 506.969 12.6059 525.959 12.6059C544.949 12.6059 560.379 28.0393 560.379 47.0372C560.379 65.996 544.949 81.4685 525.959 81.4685ZM525.959 14.3295C507.949 14.3295 493.259 28.9794 493.259 47.0372C493.259 65.0559 507.909 79.745 525.959 79.745C543.969 79.745 558.649 65.0951 558.649 47.0372C558.649 29.0186 544.009 14.3295 525.959 14.3295Z" fill="#B9FF66"/>
<path d="M535.039 50.3666C533.159 50.3666 531.519 51.2676 530.419 52.6777L519.109 48.2514C519.109 48.0947 519.149 47.9772 519.149 47.8205C519.149 47.5463 519.109 47.2721 519.069 46.9979L530.659 41.6315C531.709 42.8458 533.279 43.6292 535.039 43.6684C538.249 43.6684 540.919 41.0439 540.919 37.7927C540.919 34.5415 538.289 31.8779 535.039 31.8779C531.829 31.8779 529.169 34.5024 529.169 37.7536C529.169 38.0278 529.209 38.302 529.249 38.5762L517.659 43.9426C516.599 42.7283 515.029 41.9449 513.269 41.9057C510.059 41.9057 507.399 44.5301 507.399 47.7813C507.399 51.0325 510.019 53.6962 513.269 53.6962C515.149 53.6962 516.799 52.7952 517.889 51.3851L529.209 55.8114C529.209 55.9681 529.169 56.0856 529.169 56.2423C529.169 59.4935 531.789 62.1571 535.039 62.1571C538.249 62.1571 540.919 59.5326 540.919 56.2814C540.879 53.0302 538.249 50.4058 535.039 50.3666Z" fill="black"/>
<path d="M535.489 177.188C550.849 166.517 554.709 145.478 544.109 130.194C533.509 114.91 512.449 111.17 497.089 121.84C481.719 132.51 477.859 153.55 488.459 168.834C499.069 184.118 520.119 187.858 535.489 177.188Z" fill="black"/>
<path d="M507.829 165.568L502.899 138.814C502.659 137.443 503.919 136.307 505.249 136.66L534.419 144.925C535.909 145.356 536.259 147.275 535.039 148.215L510.769 166.704C509.709 167.566 508.109 166.978 507.829 165.568Z" fill="white"/>
<path d="M515.959 286.777C534.929 277.535 542.869 254.748 533.689 235.881C524.509 217.014 501.679 209.211 482.709 218.453C463.729 227.694 455.789 250.481 464.969 269.348C474.149 288.215 496.979 296.018 515.959 286.777Z" fill="#B9FF66"/>
<path d="M499.139 291.542C495.069 291.542 490.919 290.915 486.879 289.544C477.019 286.254 469.029 279.36 464.409 270.037C459.789 260.754 459.079 250.217 462.409 240.346C469.299 220.016 491.459 208.93 511.859 215.707C521.729 218.997 529.719 225.891 534.339 235.214C538.959 244.498 539.659 255.035 536.339 264.906C530.779 281.201 515.469 291.542 499.139 291.542ZM499.529 215.472C483.909 215.472 469.259 225.343 463.979 240.933C460.799 250.373 461.469 260.44 465.889 269.293C470.319 278.185 477.949 284.805 487.389 287.938C506.889 294.401 528.069 283.825 534.649 264.397C537.819 254.956 537.159 244.889 532.729 236.037C528.309 227.145 520.669 220.525 511.239 217.391C507.359 216.06 503.409 215.472 499.529 215.472Z" fill="black"/>
<path d="M518.799 246.456C518.399 255.975 502.309 278.224 498.469 283.434C498.079 283.982 497.259 283.943 496.909 283.355C494.479 279.438 486.449 266.277 482.259 255.622C480.579 251.392 479.519 247.553 479.639 244.85C480.069 234.039 489.189 225.617 499.999 226.048C510.809 226.557 519.229 235.645 518.799 246.456Z" fill="black"/>
<path d="M505.549 252.022C509.049 248.519 509.049 242.839 505.549 239.336C502.049 235.833 496.369 235.833 492.869 239.336C489.369 242.839 489.369 248.519 492.869 252.022C496.369 255.525 502.049 255.525 505.549 252.022Z" fill="#B9FF66"/>
</svg>
